IKResults
version=1
nRows=10
nColumns=40
inDegrees=yes

Units are S.I. units (second, meters, Newtons, ...)
Angles are in degrees.

endheader
time	pelvis_tilt	pelvis_list	pelvis_rotation	pelvis_tx	pelvis_ty	pelvis_tz	hip_flexion_r	hip_adduction_r	hip_rotation_r	knee_angle_r	knee_angle_r_beta	ankle_angle_r	subtalar_angle_r	mtp_angle_r	hip_flexion_l	hip_adduction_l	hip_rotation_l	knee_angle_l	knee_angle_l_beta	ankle_angle_l	subtalar_angle_l	mtp_angle_l	lumbar_extension	lumbar_bending	lumbar_rotation	arm_flex_r	arm_add_r	arm_rot_r	elbow_flex_r	pro_sup_r	wrist_flex_r	wrist_dev_r	arm_flex_l	arm_add_l	arm_rot_l	elbow_flex_l	pro_sup_l	wrist_flex_l	wrist_dev_l
      1.74000000	     16.26262893	     -4.52768673	      6.51333747	      0.84634838	      0.95275596	      1.44397361	     -8.38304402	      6.80962067	    -14.78734307	    -18.08658212	     -0.31567041	      6.21987433	     -3.81174900	      3.50950122	    -14.63817041	      6.88824112	     -0.37674572	    -53.16316412	     -0.92787225	      4.15262274	     17.58371102	     -3.93806594	    -22.66635561	      5.14244308	     -5.13393355	     -6.62170990	     -9.23713203	     -0.03358405	     20.06606544	     89.95437384	      0.00000000	      0.00000000	      9.02191505	      6.76255232	     14.27004351	     35.39553303	     89.95437384	      0.00000000	      0.00000000
      1.75000000	     16.42846281	     -4.18179814	      6.28250647	      0.85616481	      0.95375668	      1.44508854	     -9.48731834	      6.53873840	    -15.03282986	    -17.71734171	     -0.30922595	      6.51735792	     -3.72625778	      3.42270476	    -13.45856295	      6.62976791	      0.10882895	    -54.09495263	     -0.94413503	      4.73516157	     17.68058528	     -3.81488167	    -23.05072610	      4.61004455	     -4.60993901	     -5.72747645	     -9.21548969	      0.03624978	     20.72103189	     89.95437384	      0.00000000	      0.00000000	      8.40726387	      6.67904753	     14.27296080	     34.22629022	     89.95437384	      0.00000000	      0.00000000
      1.76000000	     16.52289477	     -3.93637449	      6.19566573	      0.86620262	      0.95463827	      1.44590854	    -10.76329183	      6.51595251	    -14.74299462	    -16.83285379	     -0.29378872	      6.89902817	     -3.23314699	      3.24645148	    -12.31087392	      6.31137953	      0.02757858	    -54.67232804	     -0.95421213	      6.43225897	     18.03232026	     -3.38752962	    -23.21862179	      4.22283364	     -4.05613936	     -5.09046205	     -9.35363019	      0.41447195	     21.73075934	     89.95437384	      0.00000000	      0.00000000	      8.22715431	      6.52577663	     14.25035222	     32.05747369	     89.95437384	      0.00000000	      0.00000000
      1.77000000	     16.55127626	     -3.61600977	      6.01502959	      0.87593486	      0.95522720	      1.44686794	    -11.62878925	      6.26483397	    -14.93803871	    -16.60487954	     -0.28980982	      7.23062368	     -3.23154912	      3.14871460	    -11.00594516	      6.03093933	      0.39196026	    -55.15650907	     -0.96266269	      6.81962176	     18.02747898	     -3.23123211	    -23.41483898	      3.71179229	     -3.73508488	     -4.11610148	     -9.39729337	      0.58913839	     22.48285003	     89.95437384	      0.00000000	      0.00000000	      7.50355768	      6.57475777	     14.20116143	     30.83587670	     89.95437384	      0.00000000	      0.00000000
      1.78000000	     16.50442699	     -3.23803105	      5.94067266	      0.88574432	      0.95568813	      1.44757325	    -12.53352140	      6.00359042	    -14.77317945	    -16.14173583	     -0.28172644	      7.69260146	     -3.09305299	      3.01522341	     -9.65133425	      5.60708693	      0.45563741	    -55.39108178	     -0.96675675	      7.67509529	     18.07894033	     -3.04247938	    -23.46645996	      3.18561766	     -3.43254090	     -3.29572286	     -9.52158754	      0.86837629	     23.40804534	     89.95437384	      0.00000000	      0.00000000	      7.00854024	      6.57907979	     14.27571547	     29.09960845	     89.95437384	      0.00000000	      0.00000000
      1.79000000	     16.41215936	     -2.94105102	      5.84022825	      0.89546684	      0.95595342	      1.44829140	    -13.27286620	      5.82186400	    -14.57346395	    -15.85006294	     -0.27663578	      8.11539731	     -3.01579155	      2.87417259	     -8.30056470	      5.19761201	      0.43298364	    -55.34497143	     -0.96595198	      8.43606608	     18.07749829	     -2.83622016	    -23.45075638	      2.72124844	     -3.13686837	     -2.49330956	     -9.67526042	      1.23382249	     24.44193807	     89.95437384	      0.00000000	      0.00000000	      6.45518470	      6.59110325	     14.36608514	     27.41874696	     89.95437384	      0.00000000	      0.00000000
      1.80000000	     16.43790270	     -2.48140182	      5.45505010	      0.90499294	      0.95644586	      1.44888626	    -14.28370335	      5.52912526	    -13.05194949	    -15.29089528	     -0.26687647	      8.16599553	     -3.90956058	      2.24421560	     -7.28412639	      4.35757805	      0.30211375	    -54.90135773	     -0.95820946	      9.49078867	     17.99259708	     -0.27474196	    -23.61247488	      2.05288079	     -2.67553164	     -1.91634148	    -10.27449701	      2.79463362	     26.17530464	     89.95437384	      0.00000000	      0.00000000	      6.18962125	      6.36824976	     15.64028128	     25.33418097	     89.95437384	      0.00000000	      0.00000000
      1.81000000	     16.22201024	     -2.15320503	      5.46783945	      0.91437632	      0.95623181	      1.44933138	    -14.80044750	      5.30731745	    -12.99171343	    -15.10882814	     -0.26369880	      8.56418155	     -3.99012766	      2.04802833	     -5.76196492	      3.87953575	      0.13207287	    -54.56774935	     -0.95238689	     10.10287556	     17.93848509	      0.12521759	    -23.48470523	      1.58897188	     -2.48991260	     -1.25545567	    -10.44802692	      2.59107467	     27.59609232	     89.95437384	      0.00000000	      0.00000000	      5.63815886	      6.47257635	     15.62958555	     23.75141283	     89.95437384	      0.00000000	      0.00000000
      1.82000000	     15.99133432	     -1.98601465	      5.38818267	      0.92392609	      0.95580984	      1.45012300	    -15.18177550	      5.18799948	    -13.17624983	    -15.17225362	     -0.26480578	      8.89362286	     -4.04944934	      1.94933005	     -4.25011573	      3.76140128	      0.47250872	    -54.02763830	     -0.94296018	     10.35548859	     17.78914187	      0.20900812	    -23.29514131	      1.23519504	     -2.39399913	     -0.38007748	    -10.53843370	      2.54139924	     28.66092837	     89.95437384	      0.00000000	      0.00000000	      4.59349946	      6.67805109	     15.60427749	     22.82892716	     89.95437384	      0.00000000	      0.00000000
      1.83000000	     16.09531376	     -1.40756966	      5.17376955	      0.93353509	      0.95602391	      1.45028766	    -16.27042373	      4.68998960	    -12.56325915	    -14.67161134	     -0.25606792	      9.22670096	     -4.31473441	      1.67743975	     -3.46373488	      2.87188536	      0.34619924	    -52.85685271	     -0.92252611	     11.01932142	     17.77438783	      0.87852901	    -23.50582267	      0.51607197	     -1.93663595	     -0.10626988	    -10.94025237	      2.49287677	     30.72940145	     89.95437384	      0.00000000	      0.00000000	      4.41057652	      6.68813259	     16.02859482	     20.66607342	     89.95437384	      0.00000000	      0.00000000
